<?xml version="1.0" standalone="no"?>
<!DOCTYPE svg PUBLIC "-//W3C//DTD SVG 20010904//EN"
 "http://www.w3.org/TR/2001/REC-SVG-20010904/DTD/svg10.dtd">
<svg version="1.0" xmlns="http://www.w3.org/2000/svg"
 width="960.000000pt" height="960.000000pt" viewBox="0 0 960.000000 960.000000"
 preserveAspectRatio="xMidYMid meet">
<metadata>
Created by potrace 1.14, written by Peter Selinger 2001-2017
</metadata>
<g transform="translate(0.000000,960.000000) scale(0.100000,-0.100000)"
fill="#000000" stroke="none">
<path d="M2980 8245 c-12 -19 -27 -41 -34 -48 -7 -6 -21 -25 -32 -42 -10 -16
-24 -37 -31 -45 -7 -8 -77 -107 -157 -220 -80 -113 -148 -210 -153 -215 -4 -6
-24 -33 -43 -60 -19 -28 -38 -54 -43 -60 -4 -5 -39 -55 -77 -110 -38 -55 -77
-111 -87 -124 -10 -13 -25 -34 -33 -46 -8 -13 -49 -71 -90 -130 -41 -59 -79
-114 -85 -123 -5 -9 -18 -25 -27 -36 -10 -11 -18 -23 -18 -27 0 -4 -6 -14 -12
-21 -7 -7 -27 -34 -43 -58 -17 -25 -57 -82 -88 -127 -87 -124 -193 -280 -245
-358 -26 -38 -49 -72 -52 -75 -13 -13 -70 -102 -70 -109 0 -5 -4 -11 -8 -13
-7 -3 -91 -122 -117 -166 -5 -9 -22 -33 -37 -53 -16 -20 -28 -40 -28 -43 0 -3
-23 -37 -50 -76 -28 -39 -50 -72 -50 -74 0 -3 -23 -37 -50 -78 -28 -40 -54
-80 -60 -88 -5 -8 -25 -39 -45 -69 -19 -29 -35 -57 -35 -61 0 -5 -3 -10 -8
-12 -4 -1 -23 -28 -42 -58 -19 -30 -66 -104 -105 -165 -123 -190 -148 -230
-146 -234 2 -2 -1 -7 -6 -10 -5 -3 -27 -35 -49 -71 -21 -36 -41 -67 -44 -70
-3 -3 -10 -14 -17 -25 -6 -11 -45 -74 -85 -140 -40 -66 -74 -126 -76 -132 -2
-7 -7 -13 -12 -13 -4 0 -11 -8 -14 -17 -3 -10 -12 -27 -19 -38 -6 -11 -45 -76
-86 -145 -41 -69 -91 -152 -111 -185 -20 -33 -43 -75 -51 -92 -8 -18 -17 -33
-20 -33 -4 0 -9 -8 -12 -17 -3 -10 -22 -45 -42 -78 -19 -33 -41 -71 -48 -85
-6 -14 -17 -31 -24 -38 -7 -8 -11 -17 -8 -22 3 -5 1 -11 -5 -15 -6 -3 -19 -24
-30 -45 -19 -38 -20 -60 -20 -572 l0 -533 1805 0 1805 1 0 -76 c0 -41 0 -337
1 -658 l0 -582 67 0 c313 -3 2704 2 2762 5 93 5 245 15 285 20 101 11 133 15
155 20 14 3 43 8 65 11 22 2 54 7 70 10 17 4 39 8 50 10 11 1 29 5 40 8 11 2
63 14 115 26 52 11 117 28 145 37 99 30 290 96 300 103 6 3 33 15 60 25 103
38 281 131 456 240 42 26 175 121 195 140 6 6 28 24 49 40 128 102 343 326
430 449 11 16 29 40 40 55 134 176 277 446 381 718 36 97 110 330 118 376 1 7
5 21 9 32 3 11 8 31 11 45 3 14 16 79 29 145 31 149 38 192 61 395 20 168 28
323 29 550 0 216 -6 430 -13 430 -3 0 -5 21 -6 48 0 45 -9 137 -19 212 -2 19
-7 55 -10 79 -20 147 -67 378 -107 515 -11 38 -21 76 -23 85 -8 39 -88 257
-130 357 -110 256 -268 522 -414 694 -12 14 -38 45 -59 70 -39 47 -193 203
-253 255 -99 88 -355 275 -375 275 -3 0 -18 8 -32 19 -42 29 -227 123 -337
170 -242 104 -590 199 -860 235 -22 3 -51 8 -65 10 -14 3 -59 8 -100 11 -41 4
-91 9 -110 12 -19 4 -841 8 -1826 10 l-1792 4 -22 -36z m650 -2749 l0 -1863
-1225 0 c-712 0 -1228 4 -1231 9 -5 8 12 46 68 145 37 66 158 276 168 293 20
31 213 356 232 390 11 19 26 42 34 51 8 8 14 19 14 23 0 4 10 22 23 39 12 18
27 41 34 52 18 31 82 132 138 220 29 44 52 84 53 89 0 5 7 13 16 18 9 5 16 14
16 20 0 6 11 26 25 44 14 18 25 37 25 43 0 6 5 11 10 11 6 0 10 7 10 15 0 8 4
15 9 15 5 0 14 14 21 30 7 17 16 30 21 30 5 0 9 7 9 15 0 8 5 15 10 15 6 0 10
4 10 9 0 8 176 279 190 291 3 3 10 13 15 22 13 22 140 209 250 368 48 69 105
153 127 188 23 34 45 62 50 62 4 0 8 4 8 10 0 5 34 57 75 115 41 58 75 110 75
115 0 4 4 10 8 12 5 2 28 32 52 68 44 65 54 78 78 105 6 7 12 16 12 19 0 5 48
73 78 111 5 6 32 44 60 86 29 42 59 82 67 89 8 7 15 17 15 22 0 6 10 23 23 38
12 15 28 36 35 46 27 41 183 260 195 274 7 9 28 37 45 63 18 26 37 47 42 47 6
0 10 -691 10 -1864z m2800 1720 c19 -3 51 -8 70 -10 19 -2 62 -9 95 -15 33 -6
76 -13 95 -16 19 -3 58 -13 86 -21 28 -8 60 -16 70 -19 125 -25 449 -174 549
-252 6 -4 33 -24 60 -43 86 -59 215 -182 305 -289 50 -60 183 -251 174 -251
-3 0 3 -12 14 -27 59 -85 196 -425 216 -539 3 -14 9 -40 14 -57 9 -30 22 -90
42 -197 5 -25 11 -65 14 -90 3 -25 7 -56 10 -70 15 -80 29 -333 29 -515 0
-244 -19 -478 -54 -665 -6 -30 -12 -66 -14 -80 -5 -45 -67 -285 -77 -296 -5
-7 -8 -16 -6 -20 11 -39 -191 -467 -264 -559 -5 -5 -32 -41 -60 -80 -112 -151
-323 -339 -491 -437 -84 -49 -290 -145 -327 -152 -8 -2 -24 -6 -35 -10 -50
-19 -75 -27 -150 -46 -82 -21 -121 -29 -165 -36 -14 -1 -40 -5 -57 -9 -166
-27 -246 -30 -938 -30 l-680 0 0 123 c0 75 3 126 10 130 5 4 199 7 430 7 l420
0 0 509 0 509 -430 1 -430 1 -1 1770 c0 974 2 1776 4 1783 4 11 134 13 721 9
394 -2 732 -7 751 -11z"/>
</g>
</svg>
